<?xml version="1.0" standalone="no"?>
<!DOCTYPE svg PUBLIC "-//W3C//DTD SVG 20010904//EN"
 "http://www.w3.org/TR/2001/REC-SVG-20010904/DTD/svg10.dtd">
<svg version="1.0" xmlns="http://www.w3.org/2000/svg"
 width="513.000000pt" height="513.000000pt" viewBox="0 0 513.000000 513.000000"
 preserveAspectRatio="xMidYMid meet">
<metadata>
Created by potrace 1.14, written by Peter Selinger 2001-2017
</metadata>
<g transform="translate(0.000000,513.000000) scale(0.100000,-0.100000)"
fill="#000000" stroke="none">
<path d="M4305 5123 c-177 -31 -333 -116 -443 -240 -61 -68 -135 -211 -158
-303 -33 -130 -21 -318 27 -432 51 -119 75 -154 174 -253 126 -126 276 -192
461 -202 341 -18 640 200 733 534 23 86 25 244 4 339 -29 130 -119 288 -212
372 -92 83 -193 135 -331 173 -43 11 -213 20 -255 12z"/>
<path d="M2399 3310 c-20 -5 -47 -11 -60 -14 -65 -14 -194 -78 -252 -125 -175
-143 -270 -336 -276 -558 -3 -103 13 -187 55 -287 41 -97 71 -142 149 -224
125 -132 296 -209 480 -217 78 -3 118 1 210 19 11 2 47 14 79 26 222 84 382
267 446 510 16 60 20 213 8 281 -17 94 -77 247 -100 257 -5 2 -8 10 -8 18 0 8
-42 56 -92 107 -76 75 -109 101 -178 135 -118 58 -204 79 -325 80 -55 0 -116
-3 -136 -8z"/>
<path d="M4229 3300 c-312 -81 -531 -349 -544 -665 -8 -208 65 -394 211 -540
144 -145 328 -217 533 -210 331 12 603 241 677 570 18 80 12 272 -11 344 -83
264 -277 444 -544 507 -78 18 -242 15 -322 -6z"/>
<path d="M630 1442 c-169 -24 -345 -118 -450 -241 -123 -144 -181 -308 -174
-496 7 -214 90 -387 251 -525 75 -64 210 -132 303 -153 82 -18 219 -21 285 -7
28 6 57 12 65 14 44 8 133 49 200 91 156 99 272 265 314 450 24 107 16 268
-18 370 -84 247 -271 420 -525 485 -44 12 -203 19 -251 12z"/>
<path d="M2448 1445 c-2 -2 -21 -5 -43 -9 -252 -37 -483 -241 -565 -501 -32
-99 -36 -280 -9 -385 52 -202 188 -370 375 -463 120 -61 172 -72 329 -71 126
0 147 3 214 27 196 71 339 196 425 372 135 275 75 616 -144 825 -76 73 -93 86
-172 126 -96 48 -204 76 -314 79 -52 1 -95 1 -96 0z"/>
<path d="M4262 1433 c-140 -29 -262 -95 -366 -199 -87 -86 -148 -187 -182
-302 -47 -154 -35 -353 29 -491 72 -158 192 -283 340 -355 113 -55 199 -74
325 -74 310 0 575 193 678 494 22 64 28 100 30 194 4 144 -12 223 -73 350 -39
80 -58 107 -132 180 -47 47 -111 100 -141 117 -60 35 -171 77 -235 88 -71 13
-208 12 -273 -2z"/>
</g>
</svg>
