<svg width="26" height="26" viewBox="0 0 26 26" fill="none" xmlns="http://www.w3.org/2000/svg">
<path fill-rule="evenodd" clip-rule="evenodd" d="M21.6372 7.48781C23.591 7.48781 25.1749 5.90397 25.1749 3.9502C25.1749 1.99644 23.591 0.412598 21.6372 0.412598C19.6835 0.412598 18.0996 1.99644 18.0996 3.9502C18.0996 5.90397 19.6835 7.48781 21.6372 7.48781Z" fill="#FF6D1F"/>
<path fill-rule="evenodd" clip-rule="evenodd" d="M21.637 16.3724C23.5908 16.3724 25.1746 14.7886 25.1746 12.8349C25.1746 10.8812 23.5908 9.29736 21.637 9.29736C19.6832 9.29736 18.0994 10.8812 18.0994 12.8349C18.0994 14.7886 19.6832 16.3724 21.637 16.3724Z" fill="#FF6D1F"/>
<path fill-rule="evenodd" clip-rule="evenodd" d="M21.637 25.5869C23.5908 25.5869 25.1746 24.0031 25.1746 22.0493C25.1746 20.0956 23.5908 18.5117 21.637 18.5117C19.6832 18.5117 18.0994 20.0956 18.0994 22.0493C18.0994 24.0031 19.6832 25.5869 21.637 25.5869Z" fill="white"/>
<path fill-rule="evenodd" clip-rule="evenodd" d="M12.4231 16.3724C14.3768 16.3724 15.9606 14.7886 15.9606 12.8349C15.9606 10.8812 14.3768 9.29736 12.4231 9.29736C10.4694 9.29736 8.88556 10.8812 8.88556 12.8349C8.88556 14.7886 10.4694 16.3724 12.4231 16.3724Z" fill="#FF6D1F"/>
<path fill-rule="evenodd" clip-rule="evenodd" d="M12.4229 25.5874C14.3766 25.5874 15.9604 24.0036 15.9604 22.0498C15.9604 20.096 14.3766 18.5122 12.4229 18.5122C10.4692 18.5122 8.88541 20.096 8.88541 22.0498C8.88541 24.0036 10.4692 25.5874 12.4229 25.5874Z" fill="#FF6D1F"/>
<path fill-rule="evenodd" clip-rule="evenodd" d="M3.53751 25.5869C5.49128 25.5869 7.07512 24.0031 7.07512 22.0493C7.07512 20.0956 5.49128 18.5117 3.53751 18.5117C1.58375 18.5117 -9.15527e-05 20.0956 -9.15527e-05 22.0493C-9.15527e-05 24.0031 1.58375 25.5869 3.53751 25.5869Z" fill="#FF6D1F"/>
</svg>
