<svg xmlns="http://www.w3.org/2000/svg" version="1.1" xmlns:xlink="http://www.w3.org/1999/xlink" xmlns:svgjs="http://svgjs.com/svgjs" width="1000" height="1000"><rect width="1000" height="1000" rx="200" ry="200" fill="#000101"></rect><g transform="matrix(1.1695906432748537,0,0,1.1695906432748537,200.055300189302,200.0550930683899)"><svg xmlns="http://www.w3.org/2000/svg" version="1.1" xmlns:xlink="http://www.w3.org/1999/xlink" xmlns:svgjs="http://svgjs.com/svgjs" width="513" height="513"><svg width="513" height="513" viewBox="0 0 513 513" fill="none" xmlns="http://www.w3.org/2000/svg">
<path fill-rule="evenodd" clip-rule="evenodd" d="M440.227 144.07C479.962 144.07 512.174 111.858 512.174 72.123C512.174 32.3879 479.962 0.17627 440.227 0.17627C400.492 0.17627 368.28 32.3879 368.28 72.123C368.28 111.858 400.492 144.07 440.227 144.07Z" fill="#FF6D1F"></path>
<path fill-rule="evenodd" clip-rule="evenodd" d="M440.222 324.761C479.957 324.761 512.169 292.55 512.169 252.817C512.169 213.083 479.957 180.872 440.222 180.872C400.487 180.872 368.275 213.083 368.275 252.817C368.275 292.55 400.487 324.761 440.222 324.761Z" fill="#FF6D1F"></path>
<path fill-rule="evenodd" clip-rule="evenodd" d="M440.222 512.164C479.957 512.164 512.169 479.952 512.169 440.217C512.169 400.482 479.957 368.271 440.222 368.271C400.487 368.271 368.275 400.482 368.275 440.217C368.275 479.952 400.487 512.164 440.222 512.164Z" fill="white"></path>
<path fill-rule="evenodd" clip-rule="evenodd" d="M252.832 324.761C292.566 324.761 324.776 292.55 324.776 252.817C324.776 213.083 292.566 180.872 252.832 180.872C213.098 180.872 180.887 213.083 180.887 252.817C180.887 292.55 213.098 324.761 252.832 324.761Z" fill="#FF6D1F"></path>
<path fill-rule="evenodd" clip-rule="evenodd" d="M252.829 512.174C292.563 512.174 324.773 479.962 324.773 440.227C324.773 400.492 292.563 368.28 252.829 368.28C213.095 368.28 180.884 400.492 180.884 440.227C180.884 479.962 213.095 512.174 252.829 512.174Z" fill="#FF6D1F"></path>
<path fill-rule="evenodd" clip-rule="evenodd" d="M72.1205 512.164C111.856 512.164 144.067 479.952 144.067 440.217C144.067 400.482 111.856 368.271 72.1205 368.271C32.3855 368.271 0.173828 400.482 0.173828 440.217C0.173828 479.952 32.3855 512.164 72.1205 512.164Z" fill="#FF6D1F"></path>
</svg></svg></g></svg>