<?xml version="1.0" standalone="no"?>
<!DOCTYPE svg PUBLIC "-//W3C//DTD SVG 20010904//EN"
 "http://www.w3.org/TR/2001/REC-SVG-20010904/DTD/svg10.dtd">
<svg version="1.0" xmlns="http://www.w3.org/2000/svg"
 width="700.000000pt" height="700.000000pt" viewBox="0 0 700.000000 700.000000"
 preserveAspectRatio="xMidYMid meet">
<metadata>
Created by potrace 1.14, written by Peter Selinger 2001-2017
</metadata>
<g transform="translate(0.000000,700.000000) scale(0.100000,-0.100000)"
fill="#000000" stroke="none">
<path d="M5662 6874 c-343 -62 -628 -305 -736 -629 -15 -44 -29 -96 -32 -115
-3 -19 -9 -53 -13 -76 -9 -46 -6 -209 4 -269 52 -309 258 -583 533 -707 107
-48 116 -51 171 -63 12 -3 31 -7 44 -10 84 -20 210 -25 296 -14 103 14 124 19
191 41 335 108 583 397 644 748 24 138 8 338 -38 466 -112 314 -375 548 -699
620 -93 21 -272 25 -365 8z"/>
<path d="M3255 4493 c-214 -17 -444 -129 -596 -290 -115 -122 -205 -282 -235
-418 -24 -107 -30 -169 -28 -262 4 -125 5 -134 33 -236 95 -347 392 -615 754
-681 76 -13 260 -14 322 -1 96 20 126 29 194 57 244 101 435 292 529 528 70
176 86 398 43 575 -68 274 -253 505 -506 633 -63 32 -169 69 -220 77 -16 3
-42 8 -57 11 -33 7 -180 11 -233 7z"/>
<path d="M5690 4488 c-89 -12 -252 -68 -330 -113 -209 -121 -365 -310 -439
-531 -36 -108 -46 -178 -45 -319 3 -330 189 -644 479 -807 62 -35 176 -84 217
-92 13 -3 43 -10 68 -17 52 -13 263 -17 330 -6 452 72 796 460 803 907 3 163
-14 263 -65 389 -110 274 -340 480 -627 562 -109 31 -273 43 -391 27z"/>
<path d="M878 2015 c-2 -2 -28 -6 -58 -9 -340 -40 -659 -304 -769 -636 -75
-226 -62 -489 34 -698 157 -338 480 -551 847 -557 227 -4 409 54 593 190 302
223 444 628 349 997 -58 227 -211 436 -416 568 -130 85 -310 138 -478 144 -55
1 -101 2 -102 1z"/>
<path d="M3277 2014 c-1 -1 -27 -4 -57 -7 -30 -4 -95 -18 -143 -32 -349 -101
-602 -385 -673 -755 -12 -65 -11 -240 2 -318 81 -464 494 -803 959 -787 129 5
137 6 237 33 167 47 311 134 434 265 166 176 254 390 259 630 9 481 -332 887
-813 963 -36 6 -200 13 -205 8z"/>
<path d="M5704 2009 c-136 -15 -316 -86 -433 -172 -169 -122 -292 -295 -355
-495 -31 -98 -37 -137 -40 -262 -12 -408 250 -781 642 -915 115 -40 172 -49
307 -49 128 -1 189 9 300 45 214 71 402 221 514 409 97 164 142 336 136 530
-9 280 -149 551 -375 722 -76 58 -239 139 -325 161 -112 30 -246 39 -371 26z"/>
</g>
</svg>
