<?xml version="1.0" encoding="UTF-8"?><svg id="Layer_1" xmlns="http://www.w3.org/2000/svg" viewBox="0 0 305.88 55.54"><path d="M.65,53.4c23.26-11.38,47.5-20.68,72.11-28.85,24.76-7.96,49.78-15.44,75.59-19.45,45.17-6.25,91.21-6.96,136.44-1,6.43.91,12.78,2.39,19.01,4.48,2.7.87,2.82,4.91.06,5.83-5.24,1.93-10.37,2.33-15.7,2.19-4.82-.22-9.39-2.05-14.18-2.47-42.79-5.92-86.31-5.12-129.12.33-9.35,1.41-19.13,3.26-28.39,5.18-26.7,5.74-53.08,13.1-78.9,21.99-12.16,4.19-24.21,8.73-36,13.82-.57.25-1.23-.02-1.47-.58-.24-.56.01-1.21.56-1.46h0Z" style="fill:#ff6d1f; stroke-width:0px;"/></svg>