<svg width="186" height="42" viewBox="0 0 186 42" fill="none" xmlns="http://www.w3.org/2000/svg">
<path fill-rule="evenodd" clip-rule="evenodd" d="M21.6372 15.4878C23.591 15.4878 25.1749 13.904 25.1749 11.9502C25.1749 9.99644 23.591 8.4126 21.6372 8.4126C19.6835 8.4126 18.0996 9.99644 18.0996 11.9502C18.0996 13.904 19.6835 15.4878 21.6372 15.4878Z" fill="#FF6D1F"/>
<path fill-rule="evenodd" clip-rule="evenodd" d="M21.637 24.3724C23.5908 24.3724 25.1746 22.7886 25.1746 20.8349C25.1746 18.8812 23.5908 17.2974 21.637 17.2974C19.6832 17.2974 18.0994 18.8812 18.0994 20.8349C18.0994 22.7886 19.6832 24.3724 21.637 24.3724Z" fill="#FF6D1F"/>
<path fill-rule="evenodd" clip-rule="evenodd" d="M21.637 33.5869C23.5908 33.5869 25.1746 32.0031 25.1746 30.0493C25.1746 28.0956 23.5908 26.5117 21.637 26.5117C19.6832 26.5117 18.0994 28.0956 18.0994 30.0493C18.0994 32.0031 19.6832 33.5869 21.637 33.5869Z" fill="white"/>
<path fill-rule="evenodd" clip-rule="evenodd" d="M12.4231 24.3724C14.3768 24.3724 15.9606 22.7886 15.9606 20.8349C15.9606 18.8812 14.3768 17.2974 12.4231 17.2974C10.4694 17.2974 8.88556 18.8812 8.88556 20.8349C8.88556 22.7886 10.4694 24.3724 12.4231 24.3724Z" fill="#FF6D1F"/>
<path fill-rule="evenodd" clip-rule="evenodd" d="M12.4229 33.5874C14.3766 33.5874 15.9604 32.0036 15.9604 30.0498C15.9604 28.096 14.3766 26.5122 12.4229 26.5122C10.4692 26.5122 8.88541 28.096 8.88541 30.0498C8.88541 32.0036 10.4692 33.5874 12.4229 33.5874Z" fill="#FF6D1F"/>
<path fill-rule="evenodd" clip-rule="evenodd" d="M3.53751 33.5869C5.49128 33.5869 7.07512 32.0031 7.07512 30.0493C7.07512 28.0956 5.49128 26.5117 3.53751 26.5117C1.58375 26.5117 -9.15527e-05 28.0956 -9.15527e-05 30.0493C-9.15527e-05 32.0031 1.58375 33.5869 3.53751 33.5869Z" fill="#FF6D1F"/>
<path d="M51.0362 15.0371V17.3945H41.3243V15.0371H51.0362ZM44.6114 10.6709H47.6827V28.5508C47.6827 29.1595 47.7768 29.6188 47.9649 29.9287C48.1531 30.2386 48.3965 30.4434 48.6954 30.543C48.9942 30.6426 49.3152 30.6924 49.6583 30.6924C49.9128 30.6924 50.1784 30.6702 50.4551 30.626C50.7429 30.5706 50.9587 30.5264 51.1026 30.4932L51.1192 33C50.8757 33.0775 50.5547 33.1494 50.1563 33.2158C49.7689 33.2933 49.2986 33.332 48.7452 33.332C47.9926 33.332 47.3008 33.1826 46.67 32.8838C46.0391 32.585 45.5355 32.0869 45.1592 31.3896C44.794 30.6813 44.6114 29.7295 44.6114 28.5342V10.6709ZM58.2256 15.0371V33H55.1378V15.0371H58.2256ZM54.9053 10.2725C54.9053 9.77441 55.0547 9.35384 55.3536 9.01074C55.6635 8.66764 56.1172 8.49609 56.7149 8.49609C57.3015 8.49609 57.7497 8.66764 58.0596 9.01074C58.3806 9.35384 58.5411 9.77441 58.5411 10.2725C58.5411 10.7484 58.3806 11.1579 58.0596 11.501C57.7497 11.833 57.3015 11.999 56.7149 11.999C56.1172 11.999 55.6635 11.833 55.3536 11.501C55.0547 11.1579 54.9053 10.7484 54.9053 10.2725ZM66.461 18.6064V33H63.3731V15.0371H66.295L66.461 18.6064ZM65.8301 23.3379L64.4024 23.2881C64.4135 22.0596 64.574 20.9251 64.8839 19.8848C65.1937 18.8333 65.6531 17.9202 66.2618 17.1455C66.8705 16.3708 67.6286 15.7731 68.5362 15.3525C69.4437 14.9209 70.4952 14.7051 71.6905 14.7051C72.5316 14.7051 73.3064 14.8268 74.0147 15.0703C74.723 15.3027 75.3373 15.6735 75.8575 16.1826C76.3777 16.6917 76.7816 17.3447 77.0694 18.1416C77.3572 18.9385 77.501 19.9014 77.501 21.0303V33H74.4297V21.1797C74.4297 20.2389 74.2693 19.4863 73.9483 18.9219C73.6384 18.3574 73.1957 17.9479 72.6202 17.6934C72.0447 17.4277 71.3695 17.2949 70.5948 17.2949C69.6872 17.2949 68.9291 17.4554 68.3204 17.7764C67.7116 18.0973 67.2247 18.54 66.8594 19.1045C66.4942 19.6689 66.2286 20.3164 66.0626 21.0469C65.9076 21.7663 65.8301 22.5299 65.8301 23.3379ZM77.4678 21.6445L75.4092 22.2754C75.4203 21.2904 75.5808 20.3441 75.8907 19.4365C76.2116 18.529 76.671 17.721 77.2686 17.0127C77.8773 16.3044 78.6244 15.7454 79.5098 15.3359C80.3952 14.9154 81.4079 14.7051 82.5479 14.7051C83.5108 14.7051 84.363 14.8324 85.1046 15.0869C85.8572 15.3415 86.488 15.7344 86.9971 16.2656C87.5173 16.7858 87.9102 17.4554 88.1758 18.2744C88.4415 19.0934 88.5743 20.0674 88.5743 21.1963V33H85.4864V21.1631C85.4864 20.1559 85.3259 19.3757 85.0049 18.8223C84.695 18.2578 84.2523 17.8649 83.6768 17.6436C83.1124 17.4111 82.4372 17.2949 81.6514 17.2949C80.9763 17.2949 80.3786 17.4111 79.8585 17.6436C79.3383 17.876 78.9011 18.1969 78.5469 18.6064C78.1928 19.0049 77.9216 19.4642 77.7335 19.9844C77.5564 20.5046 77.4678 21.0579 77.4678 21.6445ZM106.705 29.8125L111.32 15.0371H113.346L112.947 17.9756L108.249 33H106.273L106.705 29.8125ZM103.601 15.0371L107.535 29.9785L107.817 33H105.742L100.529 15.0371H103.601ZM117.762 29.8623L121.514 15.0371H124.568L119.356 33H117.297L117.762 29.8623ZM113.794 15.0371L118.31 29.5635L118.824 33H116.865L112.034 17.9424L111.636 15.0371H113.794ZM138.565 29.9287V20.6816C138.565 19.9733 138.421 19.359 138.133 18.8389C137.856 18.3076 137.436 17.8981 136.871 17.6104C136.307 17.3226 135.609 17.1787 134.779 17.1787C134.005 17.1787 133.324 17.3115 132.737 17.5771C132.162 17.8428 131.708 18.1914 131.376 18.623C131.055 19.0547 130.895 19.5195 130.895 20.0176H127.823C127.823 19.3757 127.989 18.7393 128.321 18.1084C128.653 17.4775 129.129 16.9076 129.749 16.3984C130.38 15.8783 131.133 15.4688 132.007 15.1699C132.892 14.86 133.877 14.7051 134.962 14.7051C136.268 14.7051 137.419 14.9264 138.415 15.3691C139.422 15.8118 140.208 16.4814 140.773 17.3779C141.348 18.2633 141.636 19.3757 141.636 20.7148V29.082C141.636 29.6797 141.686 30.3161 141.785 30.9912C141.896 31.6663 142.056 32.2474 142.267 32.7344V33H139.063C138.908 32.6458 138.786 32.1755 138.697 31.5889C138.609 30.9912 138.565 30.4378 138.565 29.9287ZM139.096 22.1094L139.129 24.2676H136.024C135.15 24.2676 134.37 24.3395 133.684 24.4834C132.997 24.6162 132.422 24.821 131.957 25.0977C131.492 25.3743 131.138 25.723 130.895 26.1436C130.651 26.5531 130.529 27.0345 130.529 27.5879C130.529 28.1523 130.657 28.667 130.911 29.1318C131.166 29.5967 131.548 29.9674 132.057 30.2441C132.577 30.5098 133.213 30.6426 133.966 30.6426C134.907 30.6426 135.737 30.4434 136.456 30.0449C137.176 29.6465 137.746 29.1595 138.166 28.584C138.598 28.0085 138.83 27.4495 138.863 26.9072L140.175 28.3848C140.097 28.8496 139.887 29.3643 139.544 29.9287C139.201 30.4932 138.742 31.0355 138.166 31.5557C137.602 32.0648 136.926 32.4909 136.141 32.834C135.366 33.166 134.492 33.332 133.518 33.332C132.3 33.332 131.232 33.0941 130.314 32.6182C129.406 32.1423 128.698 31.5059 128.189 30.709C127.69 29.901 127.441 28.999 127.441 28.0029C127.441 27.04 127.63 26.1934 128.006 25.4629C128.382 24.7214 128.925 24.1071 129.633 23.6201C130.341 23.1221 131.193 22.7458 132.19 22.4912C133.186 22.2367 134.298 22.1094 135.526 22.1094H139.096ZM154.237 15.0371V17.3945H144.525V15.0371H154.237ZM147.813 10.6709H150.884V28.5508C150.884 29.1595 150.978 29.6188 151.166 29.9287C151.354 30.2386 151.598 30.4434 151.897 30.543C152.195 30.6426 152.516 30.6924 152.859 30.6924C153.114 30.6924 153.38 30.6702 153.656 30.626C153.944 30.5706 154.16 30.5264 154.304 30.4932L154.32 33C154.077 33.0775 153.756 33.1494 153.357 33.2158C152.97 33.2933 152.5 33.332 151.946 33.332C151.194 33.332 150.502 33.1826 149.871 32.8838C149.24 32.585 148.737 32.0869 148.36 31.3896C147.995 30.6813 147.813 29.7295 147.813 28.5342V10.6709ZM165.61 15.0371V17.3945H155.898V15.0371H165.61ZM159.186 10.6709H162.257V28.5508C162.257 29.1595 162.351 29.6188 162.539 29.9287C162.727 30.2386 162.971 30.4434 163.27 30.543C163.568 30.6426 163.889 30.6924 164.232 30.6924C164.487 30.6924 164.753 30.6702 165.029 30.626C165.317 30.5706 165.533 30.5264 165.677 30.4932L165.693 33C165.45 33.0775 165.129 33.1494 164.731 33.2158C164.343 33.2933 163.873 33.332 163.319 33.332C162.567 33.332 161.875 33.1826 161.244 32.8838C160.613 32.585 160.11 32.0869 159.733 31.3896C159.368 30.6813 159.186 29.7295 159.186 28.5342V10.6709ZM179.922 28.2354C179.922 27.7926 179.822 27.3831 179.623 27.0068C179.435 26.6195 179.042 26.2708 178.444 25.9609C177.858 25.64 176.972 25.3633 175.788 25.1309C174.792 24.9206 173.89 24.6715 173.082 24.3838C172.285 24.096 171.605 23.7474 171.04 23.3379C170.487 22.9284 170.061 22.4469 169.762 21.8936C169.463 21.3402 169.314 20.6927 169.314 19.9512C169.314 19.2428 169.468 18.5732 169.778 17.9424C170.099 17.3115 170.548 16.7526 171.123 16.2656C171.71 15.7786 172.412 15.3968 173.232 15.1201C174.051 14.8434 174.964 14.7051 175.971 14.7051C177.41 14.7051 178.638 14.9596 179.656 15.4688C180.675 15.9779 181.455 16.6585 181.997 17.5107C182.539 18.3519 182.811 19.2871 182.811 20.3164H179.739C179.739 19.8184 179.59 19.3369 179.291 18.8721C179.003 18.3962 178.577 18.0033 178.013 17.6934C177.459 17.3835 176.779 17.2285 175.971 17.2285C175.119 17.2285 174.427 17.3613 173.896 17.627C173.375 17.8815 172.994 18.208 172.75 18.6064C172.518 19.0049 172.401 19.4255 172.401 19.8682C172.401 20.2002 172.457 20.499 172.567 20.7646C172.689 21.0192 172.899 21.2572 173.198 21.4785C173.497 21.6888 173.918 21.888 174.46 22.0762C175.002 22.2643 175.694 22.4525 176.535 22.6406C178.007 22.9727 179.219 23.3711 180.171 23.8359C181.123 24.3008 181.831 24.8708 182.296 25.5459C182.761 26.221 182.993 27.04 182.993 28.0029C182.993 28.7887 182.827 29.5081 182.495 30.1611C182.174 30.8141 181.704 31.3786 181.084 31.8545C180.475 32.3193 179.745 32.6846 178.893 32.9502C178.051 33.2048 177.105 33.332 176.054 33.332C174.471 33.332 173.132 33.0498 172.036 32.4854C170.94 31.9209 170.11 31.1904 169.546 30.2939C168.982 29.3975 168.699 28.4512 168.699 27.4551H171.787C171.831 28.2962 172.075 28.9658 172.518 29.4639C172.96 29.9508 173.503 30.2995 174.145 30.5098C174.787 30.709 175.423 30.8086 176.054 30.8086C176.895 30.8086 177.598 30.6979 178.162 30.4766C178.738 30.2552 179.175 29.9508 179.474 29.5635C179.773 29.1761 179.922 28.7334 179.922 28.2354Z" fill="white"/>
</svg>
